<?xml version="1.0" standalone="no"?>
<!DOCTYPE svg PUBLIC "-//W3C//DTD SVG 20010904//EN"
 "http://www.w3.org/TR/2001/REC-SVG-20010904/DTD/svg10.dtd">
<svg version="1.0" xmlns="http://www.w3.org/2000/svg"
 width="219.000000pt" height="219.000000pt" viewBox="0 0 219.000000 219.000000"
 preserveAspectRatio="xMidYMid meet">
<metadata>
Created by potrace 1.11, written by Peter Selinger 2001-2013
</metadata>
<g transform="translate(0.000000,219.000000) scale(0.100000,-0.100000)"
fill="#000000" stroke="none">
<path d="M935 2179 c-273 -35 -556 -206 -728 -439 -57 -78 -130 -213 -143
-265 -4 -16 -10 -34 -14 -40 -4 -5 -15 -44 -26 -85 -15 -60 -19 -111 -19 -255
0 -144 4 -195 19 -255 11 -41 22 -79 26 -85 4 -5 10 -23 14 -40 4 -16 26 -66
48 -110 129 -257 370 -464 637 -547 36 -11 75 -24 87 -28 12 -5 74 -14 138
-21 92 -10 140 -10 232 0 64 7 126 16 138 21 12 4 51 17 87 28 267 83 508 290
637 547 22 44 44 94 48 110 4 17 10 35 14 40 4 6 15 44 26 85 27 108 27 402 0
510 -11 41 -22 80 -26 85 -4 6 -10 24 -14 40 -13 52 -86 187 -143 265 -240
325 -631 490 -1038 439z m297 -49 c150 -30 237 -58 342 -111 43 -22 84 -45 91
-52 8 -7 36 -28 64 -47 28 -19 51 -41 51 -48 0 -7 4 -11 8 -8 9 6 48 -35 44
-46 -1 -5 4 -8 11 -8 6 0 23 -16 37 -35 14 -19 39 -50 55 -69 40 -44 118 -201
149 -298 63 -195 62 -427 -1 -628 -31 -99 -106 -250 -144 -291 -15 -16 -25
-29 -23 -29 3 0 -9 -15 -25 -32 -17 -18 -31 -36 -31 -40 0 -5 -7 -8 -16 -8 -8
0 -12 -5 -9 -10 3 -6 -3 -14 -15 -18 -12 -4 -21 -11 -21 -15 1 -4 -1 -6 -3 -4
-2 1 -14 -10 -25 -25 -25 -31 -131 -103 -218 -146 -136 -69 -314 -112 -463
-112 -149 0 -327 43 -463 112 -82 41 -193 114 -214 142 -10 12 -21 23 -25 24
-5 1 -8 5 -9 10 0 4 -9 10 -20 14 -11 4 -17 12 -14 18 3 5 -1 10 -9 10 -9 0
-16 3 -16 8 0 4 -14 22 -31 40 -16 17 -28 32 -25 32 2 0 -8 13 -23 29 -38 41
-113 192 -144 291 -64 205 -64 425 0 630 31 99 106 250 144 291 15 16 25 29
23 29 -3 0 9 15 25 33 17 17 31 35 31 40 0 4 7 7 15 7 8 0 14 4 13 8 -8 24
149 146 258 201 105 53 170 74 339 110 57 13 225 13 287 1z"/>
<path d="M915 2069 c-83 -15 -95 -19 -95 -30 0 -6 13 -7 35 -3 32 6 35 4 40
-22 3 -16 10 -45 15 -65 6 -20 10 -46 10 -57 0 -20 16 -39 26 -30 2 2 -3 36
-11 74 -22 102 -20 113 15 121 17 3 30 9 30 14 0 5 -3 8 -7 8 -5 -1 -30 -5
-58 -10z"/>
<path d="M1119 2068 c0 -7 -4 -52 -7 -100 -4 -49 -4 -88 -1 -88 8 0 19 38 19
69 0 23 2 23 50 17 28 -4 50 -3 50 2 0 11 -34 22 -67 22 -20 0 -23 5 -23 35
l0 35 58 1 c47 1 52 3 27 9 -50 13 -105 11 -106 -2z"/>
<path d="M688 1999 c-22 -12 -24 -62 -3 -79 11 -9 13 -23 9 -49 -11 -68 54
-93 109 -43 11 9 29 16 41 14 21 -2 21 -2 -1 14 -15 11 -23 27 -23 45 0 19 -5
29 -15 29 -11 0 -12 -5 -5 -25 11 -30 11 -30 -33 -9 -33 16 -34 18 -21 43 23
43 -17 85 -58 60z m37 -56 l-7 -28 -20 25 c-19 23 -19 25 -2 37 24 18 38 1 29
-34z m38 -65 c30 -14 34 -30 12 -48 -29 -24 -75 8 -62 44 8 19 15 20 50 4z"/>
<path d="M1287 1980 c-36 -29 -39 -100 -5 -124 50 -35 106 -6 114 59 7 48 -9
72 -51 81 -22 4 -38 0 -58 -16z m82 -23 c22 -57 -21 -113 -68 -88 -43 23 -15
111 35 111 16 0 27 -8 33 -23z"/>
<path d="M1444 1925 c-32 -22 -49 -71 -36 -101 25 -53 106 -51 131 2 35 77
-30 145 -95 99z m74 -17 c19 -19 14 -55 -13 -82 -34 -34 -69 -23 -73 24 -6 54
51 93 86 58z"/>
<path d="M556 1918 c4 -7 17 -25 27 -40 22 -30 19 -36 -37 -72 l-29 -19 -28
34 c-53 65 -40 20 17 -58 69 -95 63 -88 70 -81 7 7 -13 46 -33 66 -11 11 -11
17 -2 28 7 8 14 13 16 10 2 -2 16 8 30 22 l26 26 33 -39 c36 -43 54 -45 26 -3
-52 79 -99 137 -110 138 -8 0 -10 -5 -6 -12z"/>
<path d="M1713 1841 c-13 -11 -23 -25 -23 -33 0 -7 -6 -2 -13 12 -7 14 -23 27
-37 29 -27 3 -92 -27 -85 -40 3 -4 1 -10 -5 -14 -5 -3 -10 -19 -10 -35 0 -21
8 -34 28 -47 15 -10 30 -22 35 -28 5 -6 12 -4 21 7 7 10 17 14 21 10 5 -4 5
-2 2 4 -3 6 9 28 28 49 19 21 35 41 35 45 0 4 9 15 20 25 37 34 21 48 -17 16z
m-59 -20 c21 -23 15 -49 -19 -81 -21 -20 -28 -22 -50 -12 -34 16 -32 44 6 81
36 36 40 37 63 12z"/>
<path d="M1340 1489 c-126 -156 -137 -175 -124 -226 9 -36 6 -42 -45 -118 -88
-131 -76 -130 -154 -14 -55 82 -65 104 -57 119 14 27 12 68 -6 130 -28 93
-176 220 -257 220 -44 0 -60 -43 -47 -125 9 -56 51 -158 70 -170 5 -3 8 -11 5
-16 -4 -5 1 -9 9 -9 9 0 16 -6 16 -14 0 -7 8 -16 18 -20 9 -3 33 -15 52 -26
19 -11 49 -20 67 -20 29 0 38 -8 78 -62 24 -35 48 -67 53 -73 4 -5 16 -24 27
-42 l18 -31 -38 -54 c-73 -100 -110 -143 -164 -193 -127 -115 -124 -111 -117
-157 9 -58 23 -71 64 -64 33 5 82 40 82 58 0 21 75 194 91 212 11 11 19 23 19
27 0 4 20 37 44 73 l43 67 24 -33 c38 -51 78 -116 81 -130 2 -7 10 -20 18 -30
9 -9 24 -41 34 -70 41 -116 65 -156 100 -168 33 -10 87 -5 84 9 -1 3 1 23 6
44 5 25 3 43 -5 53 -6 8 -9 14 -5 14 3 0 -2 8 -11 18 -10 11 -21 18 -24 16 -3
-2 -37 27 -75 64 -62 59 -110 117 -180 217 l-20 29 38 58 c21 32 43 58 48 58
6 0 9 3 8 8 -1 4 9 24 22 44 21 31 31 38 58 38 26 0 42 9 68 38 51 55 69 78
72 92 1 6 18 36 37 66 19 30 35 56 35 59 0 2 11 21 25 41 26 38 32 64 15 64
-5 0 -10 -6 -10 -14 0 -8 -3 -16 -7 -18 -5 -1 -24 -25 -42 -53 -19 -27 -37
-52 -40 -55 -4 -3 -24 -32 -46 -65 -21 -33 -40 -62 -42 -64 -2 -2 -5 -2 -8 1
-3 3 22 45 55 94 112 164 132 196 124 202 -3 4 -9 1 -11 -5 -3 -7 -23 -37 -46
-67 -23 -31 -66 -89 -95 -131 -29 -41 -58 -75 -64 -75 -6 0 -5 7 4 18 9 9 48
65 88 125 39 59 76 107 82 107 6 0 8 3 5 7 -4 3 -2 12 3 18 8 9 6 15 -7 19
-10 4 -14 4 -11 1 7 -8 -178 -268 -194 -274 -13 -4 -7 6 47 80 22 31 46 65 52
75 7 11 29 41 48 69 35 50 42 65 28 65 -5 -1 -55 -59 -113 -131z"/>
<path d="M1900 850 c0 -5 14 -19 30 -32 34 -25 25 -38 -27 -38 -27 0 -34 -5
-39 -27 -4 -16 -12 -31 -17 -35 -13 -8 92 -60 105 -52 5 4 -10 16 -33 28 -46
23 -54 33 -39 56 6 9 27 14 62 15 46 0 54 -3 63 -22 12 -28 25 -30 25 -4 0 10
-27 41 -59 70 -61 52 -71 58 -71 41z"/>
<path d="M235 829 c-53 -22 -78 -39 -56 -39 7 0 21 4 31 10 15 8 22 4 39 -25
43 -74 121 -20 81 56 -13 24 -32 23 -95 -2z m77 -61 c-15 -15 -41 -3 -51 24
-7 19 -4 25 18 34 24 10 27 9 35 -18 6 -19 5 -33 -2 -40z"/>
<path d="M280 704 c-52 -30 -55 -32 -48 -39 3 -4 22 3 43 15 35 20 38 20 56 4
20 -18 23 -13 13 24 -8 28 -9 27 -64 -4z"/>
<path d="M1817 662 c-21 -23 -21 -41 -1 -70 28 -40 104 -25 104 20 0 24 -16
23 -23 -2 -3 -12 -14 -20 -27 -20 l-22 0 21 35 c20 34 20 35 1 45 -26 14 -34
13 -53 -8z m43 -12 c0 -6 -7 -13 -15 -16 -8 -4 -12 -10 -9 -15 3 -5 0 -9 -5
-9 -12 0 -15 33 -4 43 10 11 33 8 33 -3z"/>
<path d="M296 631 c-21 -23 -18 -70 6 -85 26 -16 34 1 9 21 -19 16 -20 20 -8
37 13 18 15 18 33 -12 21 -36 26 -38 48 -16 19 18 20 28 6 55 -14 26 -71 26
-94 0z m77 -13 c2 -7 2 -19 -1 -26 -3 -9 -8 -8 -18 5 -7 10 -14 21 -14 26 0
12 28 8 33 -5z"/>
<path d="M1772 583 c2 -10 11 -27 21 -37 9 -11 17 -23 17 -27 0 -7 -34 0 -72
16 -10 4 -18 3 -18 -3 0 -10 41 -28 97 -42 l32 -8 -31 59 c-30 57 -52 77 -46
42z"/>
<path d="M379 529 c-24 -20 -41 -41 -37 -45 4 -3 23 7 43 24 62 55 91 15 33
-45 -37 -38 -26 -45 14 -8 32 30 68 33 68 7 0 -10 -13 -31 -30 -47 -50 -48
-36 -64 16 -17 42 38 48 58 24 82 -11 11 -24 20 -30 20 -5 0 -10 6 -10 13 0 7
-10 23 -23 34 l-24 20 -44 -38z"/>
<path d="M1665 530 c3 -5 8 -10 11 -10 2 0 4 5 4 10 0 6 -5 10 -11 10 -5 0 -7
-4 -4 -10z"/>
<path d="M1630 503 c1 -10 36 -53 44 -53 4 0 19 -15 35 -32 25 -27 32 -31 43
-20 7 7 9 12 3 10 -5 -1 -32 21 -59 50 -45 48 -66 63 -66 45z"/>
<path d="M1730 465 c24 -24 48 -41 54 -38 10 7 -71 83 -89 83 -5 0 11 -20 35
-45z"/>
<path d="M575 460 c-3 -5 1 -10 9 -10 9 0 16 5 16 10 0 6 -4 10 -9 10 -6 0
-13 -4 -16 -10z"/>
<path d="M1601 426 c-19 -23 -9 -67 21 -89 24 -18 30 -19 55 -6 31 15 43 49
18 49 -8 0 -15 -6 -15 -14 0 -21 -16 -28 -42 -20 -21 6 -20 8 12 34 30 24 32
30 21 44 -17 20 -55 21 -70 2z m49 -14 c0 -4 -9 -13 -20 -20 -16 -10 -20 -10
-20 1 0 8 3 17 7 20 9 9 33 9 33 -1z"/>
<path d="M521 388 c-17 -23 -28 -44 -25 -47 6 -6 74 68 74 82 0 18 -21 3 -49
-35z"/>
<path d="M572 370 c-27 -48 -28 -76 -2 -90 11 -6 20 -7 20 -3 0 4 4 1 10 -7 5
-8 10 -12 12 -10 22 30 58 92 58 100 0 21 -16 8 -38 -31 -15 -26 -29 -39 -40
-37 -25 5 -26 34 -1 69 12 17 18 34 13 39 -5 5 -19 -8 -32 -30z"/>
<path d="M1468 384 c-16 -8 -28 -17 -28 -19 0 -2 16 -33 36 -69 38 -70 47 -73
92 -33 34 31 25 81 -22 119 -26 21 -43 22 -78 2z m77 -24 c32 -36 19 -99 -20
-100 -5 0 -22 23 -36 50 -24 45 -25 51 -10 60 25 15 46 12 66 -10z"/>
<path d="M692 326 c-4 -6 -16 -30 -24 -53 -21 -57 0 -59 24 -3 12 28 23 40 37
40 25 0 28 -32 6 -70 -18 -32 -18 -40 -1 -40 8 0 17 13 21 29 3 16 14 36 24
45 16 14 20 15 30 2 9 -11 9 -22 -4 -52 -9 -21 -12 -41 -7 -46 5 -5 17 11 27
38 20 54 13 77 -26 82 -13 2 -31 10 -39 17 -22 18 -58 25 -68 11z"/>
<path d="M1350 321 c14 -27 13 -31 -10 -31 -11 0 -26 -10 -35 -23 -12 -19 -13
-29 -3 -54 19 -51 54 -60 106 -27 9 6 -45 154 -56 154 -9 0 -10 -5 -2 -19z
m23 -84 c7 -23 6 -33 -7 -45 -16 -16 -18 -16 -32 2 -15 21 -19 58 -7 70 14 14
37 0 46 -27z"/>
<path d="M936 289 c-11 -34 -16 -139 -7 -139 5 0 12 14 16 30 6 26 11 30 41
30 19 0 34 5 34 10 0 6 -16 10 -36 10 -31 0 -35 3 -32 23 3 19 8 22 46 19 25
-2 42 1 42 7 0 6 -8 11 -19 11 -10 0 -32 3 -50 6 -21 5 -32 2 -35 -7z"/>
<path d="M1182 240 c-38 -61 33 -134 82 -84 19 19 20 63 2 87 -18 24 -68 22
-84 -3z m74 -25 c9 -36 -2 -55 -30 -55 -26 0 -42 34 -30 64 10 26 53 20 60 -9z"/>
<path d="M1055 230 c-21 -23 -14 -84 11 -94 25 -10 59 -7 72 6 16 16 16 80 0
96 -18 18 -63 14 -83 -8z m70 -14 c20 -30 6 -66 -26 -66 -34 0 -45 62 -15 82
18 12 25 9 41 -16z"/>
</g>
</svg>
